M48
; DRILL file {KiCad 8.0.4} date 2024-07-27T19:19:37+0500
; FORMAT={-:-/ absolute / inch / decimal}
; #@! TF.CreationDate,2024-07-27T19:19:37+05:00
; #@! TF.GenerationSoftware,Kicad,Pcbnew,8.0.4
; #@! TF.FileFunction,NonPlated,1,2,NPTH
FMAT,2
INCH
; #@! TA.AperFunction,NonPlated,NPTH,ComponentDrill
T1C0.0354
; #@! TA.AperFunction,NonPlated,NPTH,ComponentDrill
T2C0.0670
; #@! TA.AperFunction,NonPlated,NPTH,ComponentDrill
T3C0.1181
; #@! TA.AperFunction,NonPlated,NPTH,ComponentDrill
T4C0.1350
; #@! TA.AperFunction,NonPlated,NPTH,ComponentDrill
T5C0.2165
%
G90
G05
T1
X2.9115Y-3.9934
X2.9115Y-3.9934
X2.9115Y-4.1115
X2.9115Y-4.1115
T2
X3.2559Y-5.1132
X3.6383Y-4.9099
X3.893Y-2.5367
X3.893Y-3.2257
X3.893Y-3.9147
X3.9103Y-4.7429
X4.3261Y-2.5367
X4.3261Y-3.2257
X4.3261Y-3.9147
X4.3323Y-4.6455
X4.6017Y-3.802
X4.6222Y-3.1133
X4.6426Y-2.4246
X4.65Y-4.6763
X5.0346Y-3.8148
X5.0551Y-3.1261
X5.0755Y-2.4375
X5.0828Y-4.6914
X5.3199Y-3.6487
X5.3943Y-2.9638
X5.4687Y-2.2788
X5.7504Y-3.6955
X5.8248Y-3.0106
X5.8992Y-2.3256
X6.0137Y-3.925
X6.2025Y-3.2624
X6.3912Y-2.5998
X6.4302Y-4.0437
X6.619Y-3.3811
X6.747Y-4.3422
X6.8077Y-2.7184
X6.9849Y-3.6956
X7.1534Y-4.4917
X7.2228Y-3.049
X7.3913Y-3.8451
X7.6292Y-3.1985
T3
X3.204Y-4.9736
X3.3371Y-4.8047
X3.3371Y-4.8047
X3.5516Y-4.7887
X3.8963Y-4.5946
X3.9127Y-2.3891
X3.9127Y-3.0781
X3.9127Y-3.7671
X4.0686Y-4.466
X4.0686Y-4.466
X4.1095Y-2.3025
X4.1095Y-2.3025
X4.1095Y-2.9915
X4.1095Y-2.9915
X4.1095Y-3.6804
X4.1095Y-3.6804
X4.2799Y-4.5061
X4.3064Y-2.3891
X4.3064Y-3.0781
X4.3064Y-3.7671
X4.6258Y-3.655
X4.6462Y-2.9663
X4.6667Y-2.2776
X4.6749Y-4.5294
X4.8251Y-3.5742
X4.8251Y-3.5742
X4.8456Y-2.8856
X4.8456Y-2.8856
X4.866Y-2.1969
X4.866Y-2.1969
X4.8746Y-4.4497
X4.8746Y-4.4497
X5.0193Y-3.6667
X5.0398Y-2.978
X5.0602Y-2.2893
X5.0683Y-4.5431
X5.3554Y-3.5041
X5.4298Y-2.8191
X5.5042Y-2.1342
X5.5604Y-3.4392
X5.5604Y-3.4392
X5.6348Y-2.7543
X5.6348Y-2.7543
X5.7093Y-2.0693
X5.7093Y-2.0693
X5.7468Y-3.5466
X5.8212Y-2.8617
X5.8956Y-2.1767
X6.0731Y-3.7884
X6.2618Y-3.1258
X6.2861Y-3.7591
X6.2861Y-3.7591
X6.4506Y-2.4632
X6.4517Y-3.8963
X6.4749Y-3.0964
X6.4749Y-3.0964
X6.6405Y-3.2337
X6.6636Y-2.4338
X6.6636Y-2.4338
X6.8164Y-4.2104
X6.8292Y-2.5711
X7.0311Y-4.1971
X7.0311Y-4.1971
X7.0544Y-3.5638
X7.1859Y-4.3464
X7.269Y-3.5505
X7.269Y-3.5505
X7.2923Y-2.9172
X7.4238Y-3.6998
X7.5069Y-2.9039
X7.5069Y-2.9039
X7.6617Y-3.0532
T4
X3.4471Y-5.0115
X4.1095Y-2.5367
X4.1095Y-3.2257
X4.1095Y-3.9147
X4.1213Y-4.6942
X4.8182Y-3.8084
X4.8386Y-3.1197
X4.8591Y-2.431
X4.8664Y-4.6838
X5.5351Y-3.6721
X5.6095Y-2.9872
X5.684Y-2.3022
X6.222Y-3.9843
X6.4107Y-3.3217
X6.5995Y-2.6591
X6.9502Y-4.4169
X7.1881Y-3.7703
X7.426Y-3.1237
T5
X3.6481Y-4.3486
X4.4945Y-2.7639
X6.5221Y-4.3978
X6.9355Y-3.1084
M30
