M48
; DRILL file {KiCad 8.0.4} date 2024-07-27T19:19:37+0500
; FORMAT={-:-/ absolute / inch / decimal}
; #@! TF.CreationDate,2024-07-27T19:19:37+05:00
; #@! TF.GenerationSoftware,Kicad,Pcbnew,8.0.4
; #@! TF.FileFunction,Plated,1,2,PTH
FMAT,2
INCH
; #@! TA.AperFunction,Plated,PTH,ComponentDrill
T1C0.0157
; #@! TA.AperFunction,Plated,PTH,ComponentDrill
T2C0.0295
; #@! TA.AperFunction,Plated,PTH,ComponentDrill
T3C0.0433
%
G90
G05
T1
X2.893Y-4.3133
X2.893Y-4.3133
X2.9599Y-4.3133
X2.9599Y-4.3133
X2.9808Y-3.9639
X2.9808Y-3.9639
X3.0556Y-4.0525
X3.0556Y-4.0525
X3.2527Y-2.6954
X3.2527Y-3.0954
X3.2527Y-3.3954
X3.2527Y-3.7954
X3.2527Y-2.7954
X3.2527Y-2.8954
X3.2527Y-2.9954
X3.2527Y-3.1954
X3.2527Y-3.2954
X3.2527Y-3.4954
X3.2527Y-3.5954
X3.2527Y-3.6954
X3.3127Y-2.7954
X3.3127Y-2.8954
X3.3127Y-2.9954
X3.3127Y-3.1954
X3.3127Y-3.2954
X3.3127Y-3.4954
X3.3127Y-3.5954
X3.3127Y-3.6954
X3.3127Y-2.6954
X3.3127Y-3.0954
X3.3127Y-3.3954
X3.3127Y-3.7954
X3.3767Y-5.1559
X3.9796Y-2.6312
X3.9796Y-3.3202
X3.9796Y-4.0092
X4.016Y-4.8155
X4.6855Y-3.899
X4.7059Y-3.2103
X4.7264Y-2.5216
X4.7333Y-4.7737
X5.3958Y-3.752
X5.4702Y-3.0671
X5.5446Y-2.3821
X6.0711Y-4.0396
X6.2599Y-3.377
X6.4486Y-2.7144
X6.7957Y-4.4608
X7.0336Y-3.8142
X7.2715Y-3.1676
T2
X2.8723Y-4.4068
X2.8723Y-4.4068
X2.9806Y-4.4068
X2.9806Y-4.4068
X3.2434Y-4.3478
X3.3221Y-4.3478
T3
X2.9827Y-2.6954
X2.9827Y-2.6954
X2.9827Y-2.7954
X2.9827Y-2.8954
X2.9827Y-2.9954
X2.9827Y-3.0954
X2.9827Y-3.1954
X2.9827Y-3.2954
X2.9827Y-3.3954
X2.9827Y-3.4954
X2.9827Y-3.5954
X2.9827Y-3.6954
X2.9827Y-3.7954
X3.5827Y-2.6954
X3.5827Y-2.6954
X3.5827Y-2.7954
X3.5827Y-2.8954
X3.5827Y-2.9954
X3.5827Y-3.0954
X3.5827Y-3.1954
X3.5827Y-3.2954
X3.5827Y-3.3954
X3.5827Y-3.4954
X3.5827Y-3.5954
X3.5827Y-3.6954
X3.5827Y-3.7954
M30
