%TF.GenerationSoftware,KiCad,Pcbnew,8.0.4*%
%TF.CreationDate,2024-07-27T19:19:30+05:00*%
%TF.ProjectId,BUBA_v1,42554241-5f76-4312-9e6b-696361645f70,v1.0.0*%
%TF.SameCoordinates,Original*%
%TF.FileFunction,Paste,Top*%
%TF.FilePolarity,Positive*%
%FSLAX46Y46*%
G04 Gerber Fmt 4.6, Leading zero omitted, Abs format (unit mm)*
G04 Created by KiCad (PCBNEW 8.0.4) date 2024-07-27 19:19:30*
%MOMM*%
%LPD*%
G01*
G04 APERTURE LIST*
G04 Aperture macros list*
%AMRotRect*
0 Rectangle, with rotation*
0 The origin of the aperture is its center*
0 $1 length*
0 $2 width*
0 $3 Rotation angle, in degrees counterclockwise*
0 Add horizontal line*
21,1,$1,$2,0,0,$3*%
G04 Aperture macros list end*
%ADD10RotRect,2.600000X2.600000X344.100000*%
%ADD11RotRect,2.600000X2.600000X358.300000*%
%ADD12R,1.200000X2.250000*%
%ADD13RotRect,2.600000X2.600000X28.000000*%
%ADD14R,2.600000X2.600000*%
%ADD15RotRect,2.600000X2.600000X358.000000*%
%ADD16R,0.800000X1.000000*%
%ADD17R,1.500000X0.700000*%
%ADD18RotRect,2.600000X2.600000X13.000000*%
%ADD19RotRect,2.600000X2.600000X353.800000*%
%ADD20RotRect,2.600000X2.600000X339.800000*%
G04 APERTURE END LIST*
D10*
%TO.C,S11*%
X167611992Y-79546838D03*
X155901170Y-78498440D03*
%TD*%
D11*
%TO.C,S5*%
X126350927Y-73390720D03*
X114740745Y-75247107D03*
%TD*%
D12*
%TO.C,RST1*%
X73481695Y-114308242D03*
X73481695Y-109558242D03*
X75181694Y-114308241D03*
X75181694Y-109558243D03*
%TD*%
D13*
%TO.C,S17*%
X87653949Y-120501257D03*
X78488741Y-127866140D03*
%TD*%
D11*
%TO.C,S6*%
X126870083Y-55898423D03*
X115259901Y-57754810D03*
%TD*%
D14*
%TO.C,S1*%
X107656697Y-93483241D03*
X96106697Y-95683242D03*
%TD*%
D15*
%TO.C,S18*%
X127088004Y-113137049D03*
X115468261Y-114932619D03*
%TD*%
D14*
%TO.C,S3*%
X107656694Y-58483241D03*
X96106694Y-60683242D03*
%TD*%
D16*
%TO.C,*%
X75061697Y-99283242D03*
X72851697Y-99283242D03*
X75061697Y-106583242D03*
X72851697Y-106583242D03*
D17*
X75711697Y-100683242D03*
X75711697Y-103683242D03*
X75711697Y-105183242D03*
%TD*%
D18*
%TO.C,S16*%
X106534299Y-112699024D03*
X95775216Y-117440823D03*
%TD*%
D19*
%TO.C,S7*%
X144490836Y-87710457D03*
X132770794Y-88650197D03*
%TD*%
D20*
%TO.C,S13*%
X181663478Y-107737200D03*
X170064227Y-105813690D03*
%TD*%
D19*
%TO.C,S8*%
X146380824Y-70312815D03*
X134660782Y-71252555D03*
%TD*%
D20*
%TO.C,S14*%
X187706195Y-91313575D03*
X176106944Y-89390065D03*
%TD*%
D10*
%TO.C,S12*%
X172406277Y-62716364D03*
X160695455Y-61667966D03*
%TD*%
D19*
%TO.C,S9*%
X148270810Y-52915176D03*
X136550768Y-53854916D03*
%TD*%
D20*
%TO.C,S15*%
X193748914Y-74889946D03*
X182149663Y-72966436D03*
%TD*%
D11*
%TO.C,S4*%
X125831765Y-90883017D03*
X114221583Y-92739404D03*
%TD*%
D10*
%TO.C,S10*%
X162817704Y-96377307D03*
X151106882Y-95328909D03*
%TD*%
D14*
%TO.C,S2*%
X107656696Y-75983242D03*
X96106696Y-78183243D03*
%TD*%
M02*
