%TF.GenerationSoftware,KiCad,Pcbnew,8.0.4*%
%TF.CreationDate,2024-07-27T19:19:30+05:00*%
%TF.ProjectId,BUBA_v1,42554241-5f76-4312-9e6b-696361645f70,v1.0.0*%
%TF.SameCoordinates,Original*%
%TF.FileFunction,Soldermask,Bot*%
%TF.FilePolarity,Negative*%
%FSLAX46Y46*%
G04 Gerber Fmt 4.6, Leading zero omitted, Abs format (unit mm)*
G04 Created by KiCad (PCBNEW 8.0.4) date 2024-07-27 19:19:30*
%MOMM*%
%LPD*%
G01*
G04 APERTURE LIST*
G04 Aperture macros list*
%AMRoundRect*
0 Rectangle with rounded corners*
0 $1 Rounding radius*
0 $2 $3 $4 $5 $6 $7 $8 $9 X,Y pos of 4 corners*
0 Add a 4 corners polygon primitive as box body*
4,1,4,$2,$3,$4,$5,$6,$7,$8,$9,$2,$3,0*
0 Add four circle primitives for the rounded corners*
1,1,$1+$1,$2,$3*
1,1,$1+$1,$4,$5*
1,1,$1+$1,$6,$7*
1,1,$1+$1,$8,$9*
0 Add four rect primitives between the rounded corners*
20,1,$1+$1,$2,$3,$4,$5,0*
20,1,$1+$1,$4,$5,$6,$7,0*
20,1,$1+$1,$6,$7,$8,$9,0*
20,1,$1+$1,$8,$9,$2,$3,0*%
%AMFreePoly0*
4,1,14,0.635355,0.435355,0.650000,0.400000,0.650000,0.200000,0.635355,0.164645,0.035355,-0.435355,0.000000,-0.450000,-0.035355,-0.435355,-0.635355,0.164645,-0.650000,0.200000,-0.650000,0.400000,-0.635355,0.435355,-0.600000,0.450000,0.600000,0.450000,0.635355,0.435355,0.635355,0.435355,$1*%
%AMFreePoly1*
4,1,16,0.635355,1.035355,0.650000,1.000000,0.650000,-0.250000,0.635355,-0.285355,0.600000,-0.300000,-0.600000,-0.300000,-0.635355,-0.285355,-0.650000,-0.250000,-0.650000,1.000000,-0.635355,1.035355,-0.600000,1.050000,-0.564645,1.035355,0.000000,0.470710,0.564645,1.035355,0.600000,1.050000,0.635355,1.035355,0.635355,1.035355,$1*%
G04 Aperture macros list end*
%ADD10C,0.250000*%
%ADD11C,0.100000*%
%ADD12FreePoly0,270.000000*%
%ADD13C,1.700000*%
%ADD14RoundRect,0.050000X-0.800000X0.800000X-0.800000X-0.800000X0.800000X-0.800000X0.800000X0.800000X0*%
%ADD15FreePoly0,90.000000*%
%ADD16FreePoly1,90.000000*%
%ADD17FreePoly1,270.000000*%
%ADD18C,1.801800*%
%ADD19C,3.100000*%
%ADD20C,0.900000*%
%ADD21C,3.529000*%
%ADD22RoundRect,0.050000X-1.606411X-0.894117X0.894117X-1.606411X1.606411X0.894117X-0.894117X1.606411X0*%
%ADD23RoundRect,0.050000X-1.337994X-1.260862X1.260862X-1.337994X1.337994X1.260862X-1.260862X1.337994X0*%
%ADD24RoundRect,0.050000X0.600000X-1.125000X0.600000X1.125000X-0.600000X1.125000X-0.600000X-1.125000X0*%
%ADD25C,0.850000*%
%ADD26RoundRect,0.050000X-0.537519X-1.758145X1.758145X-0.537519X0.537519X1.758145X-1.758145X0.537519X0*%
%ADD27RoundRect,0.050000X-1.300000X-1.300000X1.300000X-1.300000X1.300000X1.300000X-1.300000X1.300000X0*%
%ADD28RoundRect,0.050000X-1.344577X-1.253839X1.253839X-1.344577X1.344577X1.253839X-1.253839X1.344577X0*%
%ADD29RoundRect,0.050000X-0.400000X0.500000X-0.400000X-0.500000X0.400000X-0.500000X0.400000X0.500000X0*%
%ADD30C,1.000000*%
%ADD31RoundRect,0.050000X-0.750000X0.350000X-0.750000X-0.350000X0.750000X-0.350000X0.750000X0.350000X0*%
%ADD32C,5.600000*%
%ADD33RoundRect,0.050000X-0.974245X-1.559117X1.559117X-0.974245X0.974245X1.559117X-1.559117X0.974245X0*%
%ADD34RoundRect,0.050000X-1.432795X-1.151997X1.151997X-1.432795X1.432795X1.151997X-1.151997X1.432795X0*%
%ADD35RoundRect,0.050000X-1.668929X-0.771153X0.771153X-1.668929X1.668929X0.771153X-0.771153X1.668929X0*%
%ADD36RoundRect,0.050000X0.600000X0.850000X-0.600000X0.850000X-0.600000X-0.850000X0.600000X-0.850000X0*%
%ADD37O,1.300000X1.800000*%
G04 APERTURE END LIST*
D10*
%TO.C,MCU1*%
X82744694Y-68463239D02*
G75*
G02*
X82494694Y-68463239I-125000J0D01*
G01*
X82494694Y-68463239D02*
G75*
G02*
X82744694Y-68463239I125000J0D01*
G01*
X82744693Y-78623239D02*
G75*
G02*
X82494695Y-78623239I-124999J0D01*
G01*
X82494695Y-78623239D02*
G75*
G02*
X82744693Y-78623239I124999J0D01*
G01*
X82744694Y-86243239D02*
G75*
G02*
X82494694Y-86243239I-125000J0D01*
G01*
X82494694Y-86243239D02*
G75*
G02*
X82744694Y-86243239I125000J0D01*
G01*
X82744693Y-96403239D02*
G75*
G02*
X82494695Y-96403239I-124999J0D01*
G01*
X82494695Y-96403239D02*
G75*
G02*
X82744693Y-96403239I124999J0D01*
G01*
X82744695Y-71003239D02*
G75*
G02*
X82494695Y-71003239I-125000J0D01*
G01*
X82494695Y-71003239D02*
G75*
G02*
X82744695Y-71003239I125000J0D01*
G01*
X82744695Y-73543239D02*
G75*
G02*
X82494695Y-73543239I-125000J0D01*
G01*
X82494695Y-73543239D02*
G75*
G02*
X82744695Y-73543239I125000J0D01*
G01*
X82744694Y-76083240D02*
G75*
G02*
X82494696Y-76083240I-124999J0D01*
G01*
X82494696Y-76083240D02*
G75*
G02*
X82744694Y-76083240I124999J0D01*
G01*
X82744695Y-81163239D02*
G75*
G02*
X82494695Y-81163239I-125000J0D01*
G01*
X82494695Y-81163239D02*
G75*
G02*
X82744695Y-81163239I125000J0D01*
G01*
X82744696Y-83703239D02*
G75*
G02*
X82494694Y-83703239I-125001J0D01*
G01*
X82494694Y-83703239D02*
G75*
G02*
X82744696Y-83703239I125001J0D01*
G01*
X82744696Y-88783238D02*
G75*
G02*
X82494694Y-88783238I-125001J0D01*
G01*
X82494694Y-88783238D02*
G75*
G02*
X82744696Y-88783238I125001J0D01*
G01*
X82744694Y-91323239D02*
G75*
G02*
X82494696Y-91323239I-124999J0D01*
G01*
X82494696Y-91323239D02*
G75*
G02*
X82744694Y-91323239I124999J0D01*
G01*
X82744695Y-93863239D02*
G75*
G02*
X82494695Y-93863239I-125000J0D01*
G01*
X82494695Y-93863239D02*
G75*
G02*
X82744695Y-93863239I125000J0D01*
G01*
X84268695Y-71003239D02*
G75*
G02*
X84018695Y-71003239I-125000J0D01*
G01*
X84018695Y-71003239D02*
G75*
G02*
X84268695Y-71003239I125000J0D01*
G01*
X84268695Y-73543239D02*
G75*
G02*
X84018695Y-73543239I-125000J0D01*
G01*
X84018695Y-73543239D02*
G75*
G02*
X84268695Y-73543239I125000J0D01*
G01*
X84268694Y-76083240D02*
G75*
G02*
X84018696Y-76083240I-124999J0D01*
G01*
X84018696Y-76083240D02*
G75*
G02*
X84268694Y-76083240I124999J0D01*
G01*
X84268695Y-81163239D02*
G75*
G02*
X84018695Y-81163239I-125000J0D01*
G01*
X84018695Y-81163239D02*
G75*
G02*
X84268695Y-81163239I125000J0D01*
G01*
X84268696Y-83703239D02*
G75*
G02*
X84018694Y-83703239I-125001J0D01*
G01*
X84018694Y-83703239D02*
G75*
G02*
X84268696Y-83703239I125001J0D01*
G01*
X84268696Y-88783238D02*
G75*
G02*
X84018694Y-88783238I-125001J0D01*
G01*
X84018694Y-88783238D02*
G75*
G02*
X84268696Y-88783238I125001J0D01*
G01*
X84268694Y-91323239D02*
G75*
G02*
X84018696Y-91323239I-124999J0D01*
G01*
X84018696Y-91323239D02*
G75*
G02*
X84268694Y-91323239I124999J0D01*
G01*
X84268695Y-93863239D02*
G75*
G02*
X84018695Y-93863239I-125000J0D01*
G01*
X84018695Y-93863239D02*
G75*
G02*
X84268695Y-93863239I125000J0D01*
G01*
X84268696Y-68463239D02*
G75*
G02*
X84018696Y-68463239I-125000J0D01*
G01*
X84018696Y-68463239D02*
G75*
G02*
X84268696Y-68463239I125000J0D01*
G01*
X84268695Y-78623239D02*
G75*
G02*
X84018697Y-78623239I-124999J0D01*
G01*
X84018697Y-78623239D02*
G75*
G02*
X84268695Y-78623239I124999J0D01*
G01*
X84268696Y-86243239D02*
G75*
G02*
X84018696Y-86243239I-125000J0D01*
G01*
X84018696Y-86243239D02*
G75*
G02*
X84268696Y-86243239I125000J0D01*
G01*
X84268695Y-96403239D02*
G75*
G02*
X84018697Y-96403239I-124999J0D01*
G01*
X84018697Y-96403239D02*
G75*
G02*
X84268695Y-96403239I124999J0D01*
G01*
D11*
X78301695Y-71511239D02*
X77285694Y-71511239D01*
X77285694Y-70495239D01*
X78301695Y-70495239D01*
X78301695Y-71511239D01*
G36*
X78301695Y-71511239D02*
G01*
X77285694Y-71511239D01*
X77285694Y-70495239D01*
X78301695Y-70495239D01*
X78301695Y-71511239D01*
G37*
X78301695Y-74051239D02*
X77285695Y-74051239D01*
X77285695Y-73035239D01*
X78301695Y-73035239D01*
X78301695Y-74051239D01*
G36*
X78301695Y-74051239D02*
G01*
X77285695Y-74051239D01*
X77285695Y-73035239D01*
X78301695Y-73035239D01*
X78301695Y-74051239D01*
G37*
X78301695Y-76591239D02*
X77285694Y-76591239D01*
X77285694Y-75575239D01*
X78301695Y-75575239D01*
X78301695Y-76591239D01*
G36*
X78301695Y-76591239D02*
G01*
X77285694Y-76591239D01*
X77285694Y-75575239D01*
X78301695Y-75575239D01*
X78301695Y-76591239D01*
G37*
X78301695Y-78115240D02*
X78301696Y-79131240D01*
X77285695Y-79131239D01*
X77285695Y-78115239D01*
X78301695Y-78115240D01*
G36*
X78301695Y-78115240D02*
G01*
X78301696Y-79131240D01*
X77285695Y-79131239D01*
X77285695Y-78115239D01*
X78301695Y-78115240D01*
G37*
X78301695Y-81671238D02*
X77285695Y-81671238D01*
X77285695Y-80655239D01*
X78301695Y-80655239D01*
X78301695Y-81671238D01*
G36*
X78301695Y-81671238D02*
G01*
X77285695Y-81671238D01*
X77285695Y-80655239D01*
X78301695Y-80655239D01*
X78301695Y-81671238D01*
G37*
X78301695Y-84211239D02*
X77285695Y-84211239D01*
X77285695Y-83195240D01*
X78301695Y-83195240D01*
X78301695Y-84211239D01*
G36*
X78301695Y-84211239D02*
G01*
X77285695Y-84211239D01*
X77285695Y-83195240D01*
X78301695Y-83195240D01*
X78301695Y-84211239D01*
G37*
X78301695Y-89291239D02*
X77285694Y-89291239D01*
X77285694Y-88275239D01*
X78301695Y-88275239D01*
X78301695Y-89291239D01*
G36*
X78301695Y-89291239D02*
G01*
X77285694Y-89291239D01*
X77285694Y-88275239D01*
X78301695Y-88275239D01*
X78301695Y-89291239D01*
G37*
X78301695Y-91831239D02*
X77285695Y-91831239D01*
X77285695Y-90815239D01*
X78301695Y-90815239D01*
X78301695Y-91831239D01*
G36*
X78301695Y-91831239D02*
G01*
X77285695Y-91831239D01*
X77285695Y-90815239D01*
X78301695Y-90815239D01*
X78301695Y-91831239D01*
G37*
X78301695Y-94371239D02*
X77285694Y-94371239D01*
X77285694Y-93355239D01*
X78301695Y-93355239D01*
X78301695Y-94371239D01*
G36*
X78301695Y-94371239D02*
G01*
X77285694Y-94371239D01*
X77285694Y-93355239D01*
X78301695Y-93355239D01*
X78301695Y-94371239D01*
G37*
X78301696Y-96911240D02*
X77285695Y-96911239D01*
X77285695Y-95895239D01*
X78301695Y-95895239D01*
X78301696Y-96911240D01*
G36*
X78301696Y-96911240D02*
G01*
X77285695Y-96911239D01*
X77285695Y-95895239D01*
X78301695Y-95895239D01*
X78301696Y-96911240D01*
G37*
X78301696Y-67955239D02*
X78301695Y-68971239D01*
X77285695Y-68971239D01*
X77285695Y-67955238D01*
X78301696Y-67955239D01*
G36*
X78301696Y-67955239D02*
G01*
X78301695Y-68971239D01*
X77285695Y-68971239D01*
X77285695Y-67955238D01*
X78301696Y-67955239D01*
G37*
X78301695Y-86751238D02*
X77285695Y-86751239D01*
X77285695Y-85735239D01*
X78301696Y-85735239D01*
X78301695Y-86751238D01*
G36*
X78301695Y-86751238D02*
G01*
X77285695Y-86751239D01*
X77285695Y-85735239D01*
X78301696Y-85735239D01*
X78301695Y-86751238D01*
G37*
X89477695Y-79131239D02*
X88461694Y-79131239D01*
X88461695Y-78115240D01*
X89477695Y-78115239D01*
X89477695Y-79131239D01*
G36*
X89477695Y-79131239D02*
G01*
X88461694Y-79131239D01*
X88461695Y-78115240D01*
X89477695Y-78115239D01*
X89477695Y-79131239D01*
G37*
X89477695Y-96911240D02*
X88461694Y-96911239D01*
X88461695Y-95895239D01*
X89477695Y-95895239D01*
X89477695Y-96911240D01*
G36*
X89477695Y-96911240D02*
G01*
X88461694Y-96911239D01*
X88461695Y-95895239D01*
X89477695Y-95895239D01*
X89477695Y-96911240D01*
G37*
X89477695Y-67955239D02*
X89477695Y-68971239D01*
X88461695Y-68971239D01*
X88461694Y-67955238D01*
X89477695Y-67955239D01*
G36*
X89477695Y-67955239D02*
G01*
X89477695Y-68971239D01*
X88461695Y-68971239D01*
X88461694Y-67955238D01*
X89477695Y-67955239D01*
G37*
X89477696Y-71511239D02*
X88461695Y-71511239D01*
X88461695Y-70495239D01*
X89477696Y-70495239D01*
X89477696Y-71511239D01*
G36*
X89477696Y-71511239D02*
G01*
X88461695Y-71511239D01*
X88461695Y-70495239D01*
X89477696Y-70495239D01*
X89477696Y-71511239D01*
G37*
X89477695Y-74051239D02*
X88461695Y-74051239D01*
X88461695Y-73035239D01*
X89477695Y-73035239D01*
X89477695Y-74051239D01*
G36*
X89477695Y-74051239D02*
G01*
X88461695Y-74051239D01*
X88461695Y-73035239D01*
X89477695Y-73035239D01*
X89477695Y-74051239D01*
G37*
X89477696Y-76591239D02*
X88461695Y-76591239D01*
X88461695Y-75575239D01*
X89477696Y-75575239D01*
X89477696Y-76591239D01*
G36*
X89477696Y-76591239D02*
G01*
X88461695Y-76591239D01*
X88461695Y-75575239D01*
X89477696Y-75575239D01*
X89477696Y-76591239D01*
G37*
X89477695Y-81671238D02*
X88461695Y-81671238D01*
X88461695Y-80655239D01*
X89477695Y-80655239D01*
X89477695Y-81671238D01*
G36*
X89477695Y-81671238D02*
G01*
X88461695Y-81671238D01*
X88461695Y-80655239D01*
X89477695Y-80655239D01*
X89477695Y-81671238D01*
G37*
X89477695Y-84211239D02*
X88461695Y-84211239D01*
X88461695Y-83195240D01*
X89477695Y-83195240D01*
X89477695Y-84211239D01*
G36*
X89477695Y-84211239D02*
G01*
X88461695Y-84211239D01*
X88461695Y-83195240D01*
X89477695Y-83195240D01*
X89477695Y-84211239D01*
G37*
X89477695Y-85735239D02*
X89477695Y-86751239D01*
X88461695Y-86751238D01*
X88461694Y-85735238D01*
X89477695Y-85735239D01*
G36*
X89477695Y-85735239D02*
G01*
X89477695Y-86751239D01*
X88461695Y-86751238D01*
X88461694Y-85735238D01*
X89477695Y-85735239D01*
G37*
X89477696Y-89291239D02*
X88461695Y-89291239D01*
X88461695Y-88275239D01*
X89477696Y-88275239D01*
X89477696Y-89291239D01*
G36*
X89477696Y-89291239D02*
G01*
X88461695Y-89291239D01*
X88461695Y-88275239D01*
X89477696Y-88275239D01*
X89477696Y-89291239D01*
G37*
X89477695Y-91831239D02*
X88461695Y-91831239D01*
X88461695Y-90815239D01*
X89477695Y-90815239D01*
X89477695Y-91831239D01*
G36*
X89477695Y-91831239D02*
G01*
X88461695Y-91831239D01*
X88461695Y-90815239D01*
X89477695Y-90815239D01*
X89477695Y-91831239D01*
G37*
X89477696Y-94371239D02*
X88461695Y-94371239D01*
X88461695Y-93355239D01*
X89477696Y-93355239D01*
X89477696Y-94371239D01*
G36*
X89477696Y-94371239D02*
G01*
X88461695Y-94371239D01*
X88461695Y-93355239D01*
X89477696Y-93355239D01*
X89477696Y-94371239D01*
G37*
%TD*%
D12*
%TO.C,MCU1*%
X89223695Y-68463238D03*
D13*
X91001695Y-68463239D03*
D14*
X91001695Y-68463239D03*
D15*
X77539695Y-68463239D03*
D13*
X75761695Y-68463239D03*
X91001695Y-71003238D03*
X75761695Y-71003238D03*
D12*
X89223695Y-71003239D03*
D15*
X77539695Y-71003239D03*
D13*
X91001695Y-73543239D03*
D12*
X89223695Y-73543239D03*
D15*
X77539695Y-73543239D03*
D13*
X75761695Y-73543239D03*
D12*
X89223696Y-76083239D03*
D15*
X77539695Y-76083239D03*
D13*
X91001695Y-76083240D03*
X75761695Y-76083240D03*
X91001695Y-78623239D03*
D12*
X89223695Y-78623239D03*
D15*
X77539695Y-78623239D03*
D13*
X75761695Y-78623239D03*
X91001695Y-81163239D03*
D12*
X89223695Y-81163239D03*
D15*
X77539695Y-81163239D03*
D13*
X75761695Y-81163239D03*
X91001695Y-83703239D03*
D12*
X89223695Y-83703239D03*
D15*
X77539695Y-83703239D03*
D13*
X75761695Y-83703239D03*
X91001695Y-86243239D03*
D12*
X89223695Y-86243239D03*
D15*
X77539695Y-86243239D03*
D13*
X75761695Y-86243239D03*
X91001695Y-88783238D03*
X75761695Y-88783238D03*
D12*
X89223695Y-88783239D03*
D15*
X77539694Y-88783239D03*
D13*
X91001695Y-91323239D03*
D12*
X89223695Y-91323239D03*
D15*
X77539695Y-91323239D03*
D13*
X75761695Y-91323239D03*
D12*
X89223695Y-93863239D03*
D15*
X77539695Y-93863239D03*
D13*
X91001695Y-93863240D03*
X75761695Y-93863240D03*
X91001695Y-96403239D03*
D12*
X89223695Y-96403239D03*
D13*
X75761695Y-96403239D03*
D15*
X77539695Y-96403240D03*
D16*
X78555696Y-68463238D03*
X78555695Y-71003239D03*
X78555695Y-73543240D03*
X78555696Y-76083239D03*
X78555695Y-78623238D03*
X78555695Y-81163239D03*
X78555695Y-83703239D03*
X78555695Y-86243240D03*
X78555696Y-88783239D03*
X78555695Y-91323239D03*
X78555695Y-93863239D03*
X78555695Y-96403240D03*
D17*
X88207694Y-96403240D03*
X88207695Y-93863239D03*
X88207695Y-91323238D03*
X88207694Y-88783239D03*
X88207695Y-86243240D03*
X88207695Y-83703239D03*
X88207695Y-81163239D03*
X88207695Y-78623238D03*
X88207694Y-76083239D03*
X88207695Y-73543239D03*
X88207695Y-71003239D03*
X88207695Y-68463238D03*
%TD*%
D18*
%TO.C,S11*%
X157542655Y-82865206D03*
D19*
X159050873Y-79395656D03*
D20*
X159000985Y-85776096D03*
D21*
X162832232Y-84371982D03*
D19*
X164462290Y-78649622D03*
X164462290Y-78649622D03*
X168668286Y-82135248D03*
D18*
X168121809Y-85878758D03*
D22*
X161312587Y-77752404D03*
X171817989Y-83032465D03*
%TD*%
D18*
%TO.C,S5*%
X117403276Y-79077779D03*
D19*
X118014304Y-75344262D03*
D20*
X119531109Y-81541988D03*
D19*
X123077369Y-73293561D03*
X123077369Y-73293561D03*
D21*
X122900855Y-79240943D03*
D19*
X128009903Y-75640925D03*
D18*
X128398434Y-79404107D03*
D23*
X119803810Y-73196405D03*
X131283461Y-75738081D03*
%TD*%
D20*
%TO.C,RST1*%
X75181694Y-109558243D03*
X75181694Y-109558243D03*
X73481695Y-109558242D03*
X73481695Y-109558242D03*
D24*
X73481695Y-114308242D03*
X73481695Y-109558242D03*
X75181694Y-114308241D03*
X75181694Y-109558243D03*
D25*
X72956694Y-111933242D03*
X72956694Y-111933242D03*
X75706694Y-111933242D03*
X75706694Y-111933242D03*
%TD*%
D18*
%TO.C,S17*%
X82699439Y-129874408D03*
D19*
X81380394Y-126328618D03*
D20*
X85768656Y-130960645D03*
D19*
X84762295Y-122038777D03*
X84762295Y-122038777D03*
D21*
X87555651Y-127292315D03*
D19*
X90209870Y-121633903D03*
D18*
X92411863Y-124710222D03*
D26*
X81870642Y-123576296D03*
X93101524Y-120096385D03*
%TD*%
D18*
%TO.C,S6*%
X117922432Y-61585482D03*
D19*
X118533460Y-57851965D03*
D20*
X120050265Y-64049691D03*
D19*
X123596525Y-55801264D03*
X123596525Y-55801264D03*
D21*
X123420011Y-61748646D03*
D19*
X128529059Y-58148628D03*
D18*
X128917590Y-61911810D03*
D23*
X120322966Y-55704108D03*
X131802617Y-58245784D03*
%TD*%
D18*
%TO.C,S1*%
X98881697Y-99433241D03*
D19*
X99381697Y-95683241D03*
D20*
X101081697Y-101833241D03*
D19*
X104381697Y-93483242D03*
X104381697Y-93483242D03*
D21*
X104381697Y-99433241D03*
D19*
X109381697Y-95683241D03*
D18*
X109881697Y-99433241D03*
D27*
X101106697Y-93483241D03*
X112656697Y-95683242D03*
%TD*%
D18*
%TO.C,S18*%
X118110697Y-118777180D03*
D19*
X118741266Y-115046915D03*
D20*
X120225598Y-121252497D03*
D19*
X123814999Y-113022752D03*
X123814999Y-113022752D03*
D21*
X123607347Y-118969128D03*
D19*
X128735174Y-115395909D03*
D18*
X129103997Y-119161076D03*
D28*
X120541994Y-112908455D03*
X132008179Y-115510206D03*
%TD*%
D18*
%TO.C,S3*%
X98881694Y-64433241D03*
D19*
X99381694Y-60683241D03*
D20*
X101081694Y-66833241D03*
D19*
X104381694Y-58483242D03*
X104381694Y-58483242D03*
D21*
X104381694Y-64433241D03*
D19*
X109381694Y-60683241D03*
D18*
X109881694Y-64433241D03*
D27*
X101106694Y-58483241D03*
X112656694Y-60683242D03*
%TD*%
D29*
%TO.C,*%
X75061697Y-99283242D03*
X72851697Y-99283242D03*
D20*
X75711697Y-100683242D03*
X75711697Y-100683242D03*
D30*
X73951697Y-101433242D03*
X73951697Y-101433242D03*
D20*
X77611697Y-102933242D03*
X77611697Y-102933242D03*
D30*
X73951697Y-104433242D03*
X73951697Y-104433242D03*
D29*
X75061697Y-106583242D03*
X72851697Y-106583242D03*
D31*
X75711697Y-105183242D03*
X75711697Y-102183242D03*
X75711697Y-100683242D03*
%TD*%
D32*
%TO.C,REF\u002A\u002A*%
X92661449Y-110453714D03*
%TD*%
D18*
%TO.C,S16*%
X99322660Y-120470471D03*
D19*
X98966278Y-116704108D03*
D20*
X102006156Y-122314067D03*
D21*
X104681695Y-119233241D03*
D19*
X103343237Y-113435739D03*
X103343237Y-113435739D03*
X108709979Y-114454598D03*
D18*
X110040730Y-117996011D03*
D33*
X100152175Y-114172454D03*
X111901041Y-113717883D03*
%TD*%
D32*
%TO.C,REF\u002A\u002A*%
X114161451Y-70203714D03*
%TD*%
D18*
%TO.C,S7*%
X135124563Y-92677963D03*
D19*
X136026638Y-89003896D03*
D20*
X137052499Y-95301523D03*
D19*
X141234991Y-87356761D03*
X141234991Y-87356761D03*
D21*
X140592395Y-93271959D03*
D19*
X145968148Y-90083890D03*
D18*
X146060227Y-93865955D03*
D34*
X137979146Y-87003063D03*
X149223993Y-90437587D03*
%TD*%
D18*
%TO.C,S13*%
X171373678Y-110291242D03*
D19*
X173137792Y-106944542D03*
D20*
X172609646Y-113303281D03*
D19*
X178589913Y-106606349D03*
X178589913Y-106606349D03*
D21*
X176535389Y-112190382D03*
D19*
X182522722Y-110397524D03*
D18*
X181697100Y-114089522D03*
D35*
X175516348Y-105475497D03*
X185596287Y-111528376D03*
%TD*%
D32*
%TO.C,REF\u002A\u002A*%
X176161450Y-78953714D03*
%TD*%
D18*
%TO.C,S8*%
X137014551Y-75280321D03*
D19*
X137916626Y-71606254D03*
D20*
X138942487Y-77903881D03*
D19*
X143124979Y-69959119D03*
X143124979Y-69959119D03*
D21*
X142482383Y-75874317D03*
D19*
X147858136Y-72686248D03*
D18*
X147950215Y-76468313D03*
D34*
X139869134Y-69605421D03*
X151113981Y-73039945D03*
%TD*%
D36*
%TO.C,BAT1*%
X84381696Y-110433241D03*
D37*
X82381696Y-110433241D03*
%TD*%
D18*
%TO.C,S14*%
X177416395Y-93867617D03*
D19*
X179180509Y-90520917D03*
D20*
X178652363Y-96879656D03*
D19*
X184632630Y-90182724D03*
X184632630Y-90182724D03*
D21*
X182578106Y-95766757D03*
D19*
X188565439Y-93973899D03*
D18*
X187739817Y-97665897D03*
D35*
X181559065Y-89051872D03*
X191639004Y-95104751D03*
%TD*%
D32*
%TO.C,REF\u002A\u002A*%
X165661451Y-111703713D03*
%TD*%
D18*
%TO.C,S12*%
X162336940Y-66034732D03*
D19*
X163845158Y-62565182D03*
D20*
X163795270Y-68945622D03*
D21*
X167626517Y-67541508D03*
D19*
X169256575Y-61819148D03*
X169256575Y-61819148D03*
X173462571Y-65304774D03*
D18*
X172916094Y-69048284D03*
D22*
X166106872Y-60921930D03*
X176612274Y-66201991D03*
%TD*%
D18*
%TO.C,S9*%
X138904537Y-57882682D03*
D19*
X139806612Y-54208615D03*
D20*
X140832473Y-60506242D03*
D19*
X145014965Y-52561480D03*
X145014965Y-52561480D03*
D21*
X144372369Y-58476678D03*
D19*
X149748122Y-55288609D03*
D18*
X149840201Y-59070674D03*
D34*
X141759120Y-52207782D03*
X153003967Y-55642306D03*
%TD*%
D18*
%TO.C,S15*%
X183459114Y-77443988D03*
D19*
X185223228Y-74097288D03*
D20*
X184695082Y-80456027D03*
D19*
X190675349Y-73759095D03*
X190675349Y-73759095D03*
D21*
X188620825Y-79343128D03*
D19*
X194608158Y-77550270D03*
D18*
X193782536Y-81242268D03*
D35*
X187601784Y-72628243D03*
X197681723Y-78681122D03*
%TD*%
D18*
%TO.C,S4*%
X116884114Y-96570076D03*
D19*
X117495142Y-92836559D03*
D20*
X119011947Y-99034285D03*
D19*
X122558207Y-90785858D03*
X122558207Y-90785858D03*
D21*
X122381693Y-96733240D03*
D19*
X127490741Y-93133222D03*
D18*
X127879272Y-96896404D03*
D23*
X119284648Y-90688702D03*
X130764299Y-93230378D03*
%TD*%
D18*
%TO.C,S10*%
X152748367Y-99695675D03*
D19*
X154256585Y-96226125D03*
D20*
X154206697Y-102606565D03*
D21*
X158037944Y-101202451D03*
D19*
X159668002Y-95480091D03*
X159668002Y-95480091D03*
X163873998Y-98965717D03*
D18*
X163327521Y-102709227D03*
D22*
X156518299Y-94582873D03*
X167023701Y-99862934D03*
%TD*%
D18*
%TO.C,S2*%
X98881696Y-81933242D03*
D19*
X99381696Y-78183242D03*
D20*
X101081696Y-84333242D03*
D19*
X104381696Y-75983243D03*
X104381696Y-75983243D03*
D21*
X104381696Y-81933242D03*
D19*
X109381696Y-78183242D03*
D18*
X109881696Y-81933242D03*
D27*
X101106696Y-75983242D03*
X112656696Y-78183243D03*
%TD*%
M02*
